<?xml version="1.0" encoding="iso-8859-1"?>
<!-- Uploaded to: SVG Repo, www.svgrepo.com, Generator: SVG Repo Mixer Tools -->
<!DOCTYPE svg PUBLIC "-//W3C//DTD SVG 1.1//EN" "http://www.w3.org/Graphics/SVG/1.1/DTD/svg11.dtd">
<svg fill="#000000" height="800px" width="800px" version="1.1" id="Capa_1" xmlns="http://www.w3.org/2000/svg" xmlns:xlink="http://www.w3.org/1999/xlink" 
	 viewBox="0 0 206.463 206.463" xml:space="preserve">
<path d="M141.163,65.086c-8.846,0-17.282,1.776-24.983,4.977c-9.431-7.815-20.913-13.227-33.502-15.327l20.454-22.688
	c1.356-1.505,2.005-3.416,1.826-5.381c-0.182-1.997-1.19-3.797-2.843-5.069l-11.872-9.134c-1.415-1.088-3.209-1.688-5.05-1.688
	H56.739c-1.843,0-3.637,0.6-5.05,1.688l-11.87,9.134c-1.652,1.271-2.662,3.07-2.845,5.067c-0.179,1.966,0.47,3.877,1.827,5.382
	l20.454,22.688C25.68,60.338,0,89.578,0,124.719c0,39.131,31.836,70.967,70.967,70.967c13.085,0,25.344-3.574,35.88-9.776
	c9.979,6.19,21.735,9.776,34.316,9.776c36.007,0,65.3-29.293,65.3-65.3C206.463,94.379,177.17,65.086,141.163,65.086z
	 M125.934,124.719c0,16.455-7.278,31.233-18.772,41.315c-9.415-8.984-15.3-21.638-15.3-35.648c0-16.861,8.513-31.766,21.461-40.66
	C121.196,99.239,125.934,111.436,125.934,124.719z M16,124.719c0-30.309,24.658-54.966,54.967-54.966
	c11.148,0,21.525,3.345,30.199,9.071c-15.38,11.957-25.303,30.617-25.303,51.562c0,17.176,6.677,32.815,17.558,44.485
	c-6.861,3.084-14.457,4.815-22.454,4.815C40.658,179.686,16,155.028,16,124.719z M141.163,179.686
	c-7.282,0-14.193-1.599-20.42-4.446c13.07-12.879,21.191-30.766,21.191-50.521c0-15.659-5.108-30.142-13.732-41.892
	c4.133-1.128,8.476-1.741,12.961-1.741c27.184,0,49.3,22.116,49.3,49.3S168.347,179.686,141.163,179.686z"/>
</svg>